<?xml version="1.0" encoding="UTF-8" standalone="no"?>
<svg width="240" height="200" viewBox="0 0 24 20" xmlns="http://www.w3.org/2000/svg" shape-rendering="crispEdges">
  <desc>Pixel Art Speech Bubble - Center Tail</desc>
  
  <g fill="#000000">
    <rect x="4" y="1" width="16" height="1" />
    <rect x="2" y="2" width="2" height="1" />
    <rect x="20" y="2" width="2" height="1" />
    <rect x="1" y="3" width="1" height="10" />
    <rect x="22" y="3" width="1" height="10" />
    <rect x="2" y="13" width="2" height="1" />
    <rect x="20" y="13" width="2" height="1" />
    <rect x="4" y="14" width="16" height="1" /> <rect x="10" y="15" width="4" height="1" />
    <rect x="11" y="16" width="2" height="2" /> </g>
  
  <g fill="#FFFFFF">
    <rect x="4" y="2" width="16" height="1" />
    <rect x="2" y="3" width="20" height="10" />
    <rect x="4" y="13" width="16" height="1" />

    <rect x="10" y="14" width="4" height="1" /> 
    <rect x="11" y="15" width="2" height="1" />
  </g>
</svg>